<svg xmlns="http://www.w3.org/2000/svg" width="246" height="40" fill="none" viewBox="0 0 246 40"><path fill="#D3A0FA" d="M18.356 5.822V0H0v40h18.356v-5.822a14.178 14.178 0 0 1 0-28.356ZM18.357 5.822v28.356a14.178 14.178 0 0 0 0-28.356Z"/><path fill="#E4E4EF" d="M54.192 28.788c-1.68 0-3.128-.36-4.344-1.08a7.383 7.383 0 0 1-2.808-3.048c-.656-1.312-.984-2.824-.984-4.536 0-1.728.328-3.24.984-4.536.656-1.312 1.592-2.336 2.808-3.072 1.216-.736 2.664-1.104 4.344-1.104 2 0 3.632.496 4.896 1.488 1.28.976 2.088 2.36 2.424 4.152h-3.168c-.224-.944-.688-1.688-1.392-2.232-.688-.544-1.616-.816-2.784-.816-1.072 0-1.992.248-2.76.744-.768.48-1.36 1.184-1.776 2.112-.416.912-.624 2-.624 3.264 0 1.264.208 2.352.624 3.264.416.896 1.008 1.592 1.776 2.088.768.48 1.688.72 2.76.72 1.168 0 2.096-.248 2.784-.744.704-.512 1.16-1.216 1.368-2.112h3.192c-.32 1.696-1.12 3.032-2.4 4.008-1.28.96-2.92 1.44-4.92 1.44Zm8.993-.288V11.22h2.88v7.248c.4-.672.944-1.2 1.632-1.584.688-.384 1.472-.576 2.352-.576.96 0 1.784.208 2.472.624.688.4 1.216 1.008 1.584 1.824.368.8.552 1.792.552 2.976V28.5h-2.856v-6.48c0-1.056-.216-1.864-.648-2.424-.416-.576-1.072-.864-1.968-.864-.592 0-1.128.144-1.608.432-.48.288-.856.704-1.128 1.248-.256.528-.384 1.176-.384 1.944V28.5h-2.88Zm17.47.288c-1.008 0-1.84-.16-2.496-.48-.656-.336-1.144-.776-1.464-1.32a3.614 3.614 0 0 1-.48-1.824c0-.752.192-1.4.576-1.944.4-.56.984-.992 1.752-1.296.768-.32 1.72-.48 2.856-.48h3.048c0-.624-.096-1.136-.288-1.536a1.85 1.85 0 0 0-.84-.936c-.368-.208-.832-.312-1.392-.312-.656 0-1.232.16-1.728.48-.48.304-.768.76-.864 1.368h-2.832c.08-.864.368-1.608.864-2.232.496-.624 1.144-1.104 1.944-1.44.8-.352 1.68-.528 2.64-.528 1.12 0 2.08.2 2.88.6.816.384 1.432.936 1.848 1.656.432.72.648 1.592.648 2.616v7.32H84.88l-.288-1.92c-.16.32-.368.616-.624.888-.24.256-.52.488-.84.696-.32.192-.688.344-1.104.456-.4.112-.856.168-1.368.168Zm.648-2.28a3.1 3.1 0 0 0 1.248-.24 2.77 2.77 0 0 0 .936-.72 3.24 3.24 0 0 0 .624-1.032 4.35 4.35 0 0 0 .264-1.2v-.024h-2.664c-.576 0-1.048.072-1.416.216-.368.144-.64.344-.816.6-.16.24-.24.52-.24.84 0 .336.08.624.24.864.176.224.416.4.72.528.304.112.672.168 1.104.168ZM89.31 28.5V16.596h2.568l.264 2.256c.288-.528.64-.976 1.056-1.344.416-.384.904-.68 1.464-.888a5.343 5.343 0 0 1 1.872-.312v3.024h-.792c-.512 0-.984.064-1.416.192a2.8 2.8 0 0 0-1.128.576c-.32.272-.568.648-.744 1.128-.176.464-.264 1.04-.264 1.728V28.5h-2.88Zm12.408.288c-1.008 0-1.84-.16-2.496-.48-.656-.336-1.144-.776-1.464-1.32a3.614 3.614 0 0 1-.48-1.824c0-.752.192-1.4.576-1.944.4-.56.984-.992 1.752-1.296.768-.32 1.72-.48 2.856-.48h3.048c0-.624-.096-1.136-.288-1.536a1.85 1.85 0 0 0-.84-.936c-.368-.208-.832-.312-1.392-.312-.656 0-1.232.16-1.728.48-.48.304-.768.76-.864 1.368h-2.832c.08-.864.368-1.608.864-2.232.496-.624 1.144-1.104 1.944-1.44.8-.352 1.68-.528 2.64-.528 1.12 0 2.08.2 2.88.6.816.384 1.432.936 1.848 1.656.432.72.648 1.592.648 2.616v7.32h-2.448l-.288-1.92c-.16.32-.368.616-.624.888-.24.256-.52.488-.84.696-.32.192-.688.344-1.104.456-.4.112-.856.168-1.368.168Zm.648-2.28a3.1 3.1 0 0 0 1.248-.24 2.77 2.77 0 0 0 .936-.72 3.24 3.24 0 0 0 .624-1.032 4.35 4.35 0 0 0 .264-1.2v-.024h-2.664c-.576 0-1.048.072-1.416.216-.368.144-.64.344-.816.6-.16.24-.24.52-.24.84 0 .336.08.624.24.864.176.224.416.4.72.528.304.112.672.168 1.104.168Zm13.767 2.28c-1.2 0-2.264-.264-3.192-.792a5.727 5.727 0 0 1-2.184-2.184c-.528-.944-.792-2.032-.792-3.264 0-1.232.264-2.312.792-3.24a5.727 5.727 0 0 1 2.184-2.184c.928-.544 1.992-.816 3.192-.816 1.504 0 2.768.392 3.792 1.176 1.024.784 1.68 1.856 1.968 3.216h-3.048c-.144-.608-.464-1.08-.96-1.416-.496-.336-1.088-.504-1.776-.504-.592 0-1.128.144-1.608.432-.48.288-.872.72-1.176 1.296-.288.56-.432 1.24-.432 2.04 0 .592.08 1.128.24 1.608.176.464.408.864.696 1.2.304.32.648.568 1.032.744.4.16.816.24 1.248.24.464 0 .88-.072 1.248-.216.368-.16.68-.384.936-.672.272-.288.456-.64.552-1.056h3.048c-.288 1.328-.944 2.392-1.968 3.192-1.024.8-2.288 1.2-3.792 1.2Zm12.486-.288c-.8 0-1.504-.128-2.112-.384a2.878 2.878 0 0 1-1.416-1.272c-.32-.592-.48-1.392-.48-2.4v-5.448h-2.04v-2.4h2.04l.336-3.12h2.544v3.12h3.264v2.4h-3.264v5.448c0 .608.128 1.032.384 1.272.256.224.704.336 1.344.336h1.44V28.5h-2.04Zm9.184.288c-1.2 0-2.264-.256-3.192-.768a5.83 5.83 0 0 1-2.16-2.16c-.512-.928-.768-2.008-.768-3.24 0-1.248.256-2.344.768-3.288a5.563 5.563 0 0 1 2.136-2.208c.928-.544 2-.816 3.216-.816 1.184 0 2.216.264 3.096.792.88.512 1.568 1.2 2.064 2.064.496.864.744 1.84.744 2.928 0 .16-.008.336-.024.528 0 .192-.008.4-.024.624h-9.912v-1.848h7.056c-.048-.848-.352-1.512-.912-1.992-.56-.496-1.256-.744-2.088-.744-.592 0-1.144.136-1.656.408-.496.256-.896.648-1.2 1.176-.288.512-.432 1.168-.432 1.968v.696c0 .736.144 1.368.432 1.896.288.512.68.912 1.176 1.2a3.387 3.387 0 0 0 1.656.408c.656 0 1.208-.144 1.656-.432a2.83 2.83 0 0 0 1.008-1.2h2.904a5.174 5.174 0 0 1-1.104 2.064 5.619 5.619 0 0 1-1.896 1.416c-.752.352-1.6.528-2.544.528Zm7.515-.288V16.596h2.568l.264 2.256c.288-.528.64-.976 1.056-1.344.416-.384.904-.68 1.464-.888a5.343 5.343 0 0 1 1.872-.312v3.024h-.792c-.512 0-.984.064-1.416.192a2.8 2.8 0 0 0-1.128.576c-.32.272-.568.648-.744 1.128-.176.464-.264 1.04-.264 1.728V28.5h-2.88Zm20.819.288c-1.68 0-3.128-.36-4.344-1.08a7.383 7.383 0 0 1-2.808-3.048c-.656-1.312-.984-2.824-.984-4.536 0-1.728.328-3.24.984-4.536.656-1.312 1.592-2.336 2.808-3.072 1.216-.736 2.664-1.104 4.344-1.104 2 0 3.632.496 4.896 1.488 1.28.976 2.088 2.36 2.424 4.152h-3.168c-.224-.944-.688-1.688-1.392-2.232-.688-.544-1.616-.816-2.784-.816-1.072 0-1.992.248-2.76.744-.768.48-1.36 1.184-1.776 2.112-.416.912-.624 2-.624 3.264 0 1.264.208 2.352.624 3.264.416.896 1.008 1.592 1.776 2.088.768.48 1.688.72 2.76.72 1.168 0 2.096-.248 2.784-.744.704-.512 1.16-1.216 1.368-2.112h3.192c-.32 1.696-1.12 3.032-2.4 4.008-1.28.96-2.92 1.44-4.92 1.44Zm14.633 0c-1.136 0-2.168-.264-3.096-.792a5.778 5.778 0 0 1-2.16-2.184c-.528-.944-.792-2.032-.792-3.264 0-1.232.264-2.32.792-3.264a5.727 5.727 0 0 1 2.184-2.184c.928-.528 1.96-.792 3.096-.792 1.152 0 2.184.264 3.096.792a5.56 5.56 0 0 1 2.16 2.184c.544.928.816 2.016.816 3.264 0 1.232-.272 2.32-.816 3.264a5.727 5.727 0 0 1-2.184 2.184c-.912.528-1.944.792-3.096.792Zm0-2.472c.576 0 1.096-.136 1.56-.408.48-.288.864-.712 1.152-1.272.288-.56.432-1.256.432-2.088 0-.832-.144-1.528-.432-2.088-.288-.56-.672-.976-1.152-1.248a2.855 2.855 0 0 0-1.536-.432c-.544 0-1.056.144-1.536.432-.48.272-.872.688-1.176 1.248-.288.56-.432 1.256-.432 2.088 0 .816.144 1.512.432 2.088.304.56.688.984 1.152 1.272.48.272.992.408 1.536.408Zm12.261 2.472c-.96 0-1.792-.2-2.496-.6-.688-.416-1.216-1.024-1.584-1.824-.368-.816-.552-1.816-.552-3v-6.768h2.88v6.48c0 1.072.216 1.888.648 2.448.432.56 1.096.84 1.992.84.592 0 1.12-.144 1.584-.432a2.88 2.88 0 0 0 1.08-1.224c.272-.544.408-1.2.408-1.968v-6.144h2.88V28.5h-2.544l-.216-2.04a4.325 4.325 0 0 1-1.608 1.704c-.704.416-1.528.624-2.472.624Zm8.998-.288V16.596h2.544l.216 2.04a4.383 4.383 0 0 1 1.608-1.68c.704-.432 1.52-.648 2.448-.648.992 0 1.832.208 2.52.624.688.4 1.216 1.008 1.584 1.824.368.8.552 1.792.552 2.976V28.5h-2.856v-6.48c0-1.056-.224-1.864-.672-2.424-.432-.576-1.104-.864-2.016-.864-.592 0-1.12.144-1.584.432-.448.288-.808.704-1.08 1.248-.256.528-.384 1.176-.384 1.944V28.5h-2.88Zm18.598 0c-.8 0-1.504-.128-2.112-.384a2.878 2.878 0 0 1-1.416-1.272c-.32-.592-.48-1.392-.48-2.4v-5.448h-2.04v-2.4h2.04l.336-3.12h2.544v3.12h3.264v2.4h-3.264v5.448c0 .608.128 1.032.384 1.272.256.224.704.336 1.344.336h1.44V28.5h-2.04Zm9.184.288c-1.2 0-2.264-.256-3.192-.768a5.83 5.83 0 0 1-2.16-2.16c-.512-.928-.768-2.008-.768-3.24 0-1.248.256-2.344.768-3.288a5.563 5.563 0 0 1 2.136-2.208c.928-.544 2-.816 3.216-.816 1.184 0 2.216.264 3.096.792.88.512 1.568 1.2 2.064 2.064.496.864.744 1.84.744 2.928 0 .16-.008.336-.024.528 0 .192-.008.4-.024.624h-9.912v-1.848h7.056c-.048-.848-.352-1.512-.912-1.992-.56-.496-1.256-.744-2.088-.744-.592 0-1.144.136-1.656.408-.496.256-.896.648-1.2 1.176-.288.512-.432 1.168-.432 1.968v.696c0 .736.144 1.368.432 1.896.288.512.68.912 1.176 1.2a3.387 3.387 0 0 0 1.656.408c.656 0 1.208-.144 1.656-.432a2.83 2.83 0 0 0 1.008-1.2h2.904a5.174 5.174 0 0 1-1.104 2.064 5.619 5.619 0 0 1-1.896 1.416c-.752.352-1.6.528-2.544.528Zm7.515-.288V16.596h2.568l.264 2.256c.288-.528.64-.976 1.056-1.344.416-.384.904-.68 1.464-.888a5.343 5.343 0 0 1 1.872-.312v3.024h-.792c-.512 0-.984.064-1.416.192a2.8 2.8 0 0 0-1.128.576c-.32.272-.568.648-.744 1.128-.176.464-.264 1.04-.264 1.728V28.5h-2.88Z"/></svg>