<svg xmlns="http://www.w3.org/2000/svg" width="251" height="40" fill="none" viewBox="0 0 251 40"><path fill="#C27CF8" d="M18.356 5.822V0H0v40h18.356v-5.822a14.178 14.178 0 0 1 0-28.356ZM18.357 5.822v28.356a14.178 14.178 0 0 0 0-28.356Z"/><path fill="#12131A" d="M54.114 28.788c-1.68 0-3.128-.36-4.344-1.08-1.2-.736-2.129-1.752-2.785-3.048-.64-1.312-.96-2.824-.96-4.536 0-1.712.32-3.224.96-4.536.657-1.312 1.584-2.336 2.785-3.072 1.215-.736 2.663-1.104 4.343-1.104 2.032 0 3.697.504 4.992 1.512 1.297 1.008 2.105 2.432 2.425 4.272H58c-.207-.896-.648-1.592-1.32-2.088-.655-.512-1.52-.768-2.591-.768-.993 0-1.849.24-2.569.72-.703.464-1.248 1.128-1.632 1.992-.384.848-.576 1.872-.576 3.072 0 1.184.192 2.208.576 3.072.384.864.928 1.528 1.633 1.992.72.464 1.575.696 2.568.696 1.071 0 1.935-.232 2.591-.696.657-.48 1.089-1.144 1.297-1.992h3.551c-.32 1.744-1.128 3.112-2.424 4.104-1.295.992-2.96 1.488-4.991 1.488Zm9.11-.288V11.22h3.24v6.984a4.35 4.35 0 0 1 1.584-1.512c.672-.384 1.448-.576 2.328-.576 1.008 0 1.856.216 2.544.648.688.416 1.208 1.024 1.56 1.824.352.8.528 1.792.528 2.976V28.5h-3.216v-6.648c0-.96-.2-1.696-.6-2.208-.4-.528-1.032-.792-1.896-.792-.528 0-1.008.128-1.44.384-.432.256-.776.632-1.032 1.128-.24.48-.36 1.056-.36 1.728V28.5h-3.24Zm17.916.288c-1.008 0-1.84-.16-2.496-.48-.656-.336-1.144-.776-1.464-1.32a3.81 3.81 0 0 1-.456-1.848c0-.736.184-1.384.552-1.944.384-.56.952-1 1.704-1.32.768-.32 1.728-.48 2.88-.48h3c0-.592-.08-1.08-.24-1.464-.16-.4-.408-.696-.744-.888-.336-.192-.784-.288-1.344-.288-.608 0-1.128.136-1.56.408-.416.256-.672.656-.768 1.2H77.06c.08-.864.36-1.608.84-2.232.496-.64 1.144-1.136 1.944-1.488.816-.352 1.72-.528 2.712-.528 1.136 0 2.12.192 2.952.576.832.384 1.472.936 1.92 1.656.448.72.672 1.608.672 2.664V28.5h-2.736l-.36-1.848c-.176.32-.384.608-.624.864s-.52.48-.84.672c-.32.192-.68.336-1.08.432-.4.112-.84.168-1.32.168Zm.768-2.496c.416 0 .784-.072 1.104-.216a2.85 2.85 0 0 0 .864-.624c.24-.272.424-.576.552-.912.144-.352.24-.728.288-1.128v-.024h-2.472c-.496 0-.904.064-1.224.192-.304.112-.528.28-.672.504a1.39 1.39 0 0 0-.216.768c0 .32.072.584.216.792.144.208.352.368.624.48.272.112.584.168.936.168Zm8.215 2.208V16.404h2.88l.312 2.232a4.703 4.703 0 0 1 1.08-1.344 5.234 5.234 0 0 1 1.512-.864 5.545 5.545 0 0 1 1.896-.312v3.432h-1.104c-.48 0-.928.056-1.344.168-.4.112-.752.296-1.056.552-.304.24-.536.576-.696 1.008-.16.432-.24.976-.24 1.632V28.5h-3.24Zm12.9.288c-1.008 0-1.84-.16-2.496-.48-.656-.336-1.144-.776-1.464-1.32a3.81 3.81 0 0 1-.456-1.848c0-.736.184-1.384.552-1.944.384-.56.952-1 1.704-1.32.768-.32 1.728-.48 2.88-.48h3c0-.592-.08-1.08-.24-1.464-.16-.4-.408-.696-.744-.888-.336-.192-.784-.288-1.344-.288-.608 0-1.128.136-1.56.408-.416.256-.672.656-.768 1.2h-3.144c.08-.864.36-1.608.84-2.232.496-.64 1.144-1.136 1.944-1.488.816-.352 1.72-.528 2.712-.528 1.136 0 2.12.192 2.952.576.832.384 1.472.936 1.92 1.656.448.72.672 1.608.672 2.664V28.5h-2.736l-.36-1.848c-.176.32-.384.608-.624.864s-.52.48-.84.672c-.32.192-.68.336-1.08.432-.4.112-.84.168-1.32.168Zm.768-2.496c.416 0 .784-.072 1.104-.216a2.85 2.85 0 0 0 .864-.624c.24-.272.424-.576.552-.912.144-.352.24-.728.288-1.128v-.024h-2.472c-.496 0-.904.064-1.224.192-.304.112-.528.28-.672.504a1.39 1.39 0 0 0-.216.768c0 .32.072.584.216.792.144.208.352.368.624.48.272.112.584.168.936.168Zm14.07 2.496c-1.216 0-2.296-.272-3.24-.816a5.802 5.802 0 0 1-2.208-2.232c-.528-.944-.792-2.024-.792-3.24 0-1.248.264-2.344.792-3.288a5.757 5.757 0 0 1 2.208-2.256c.944-.56 2.024-.84 3.24-.84 1.552 0 2.856.408 3.912 1.224 1.056.816 1.728 1.936 2.016 3.36h-3.432c-.144-.56-.448-1-.912-1.32-.448-.32-.984-.48-1.608-.48-.56 0-1.064.144-1.512.432-.432.272-.776.68-1.032 1.224-.24.528-.36 1.16-.36 1.896 0 .56.072 1.064.216 1.512.144.432.344.808.6 1.128.256.304.56.536.912.696.368.16.76.24 1.176.24.416 0 .792-.072 1.128-.216a2.49 2.49 0 0 0 .888-.6c.24-.272.408-.6.504-.984h3.432c-.288 1.392-.968 2.504-2.04 3.336-1.056.816-2.352 1.224-3.888 1.224Zm13.03-.288c-.848 0-1.592-.128-2.232-.384a3.081 3.081 0 0 1-1.464-1.32c-.352-.624-.528-1.472-.528-2.544v-5.136h-2.064v-2.712h2.064l.36-3.288h2.88v3.288h3.192v2.712h-3.192V24.3c0 .544.12.92.36 1.128.24.208.648.312 1.224.312h1.584v2.76h-2.184Zm9.438.288c-1.216 0-2.296-.256-3.24-.768a5.727 5.727 0 0 1-2.184-2.184c-.512-.944-.768-2.032-.768-3.264 0-1.264.256-2.376.768-3.336a5.764 5.764 0 0 1 2.184-2.28c.928-.56 2.008-.84 3.24-.84 1.2 0 2.248.264 3.144.792a5.576 5.576 0 0 1 2.088 2.136c.496.896.744 1.912.744 3.048v.552c0 .192-.016.392-.048.6h-9.816v-1.968h6.6c-.048-.784-.328-1.4-.84-1.848-.496-.448-1.12-.672-1.872-.672-.544 0-1.048.128-1.512.384-.464.24-.832.616-1.104 1.128-.256.512-.384 1.16-.384 1.944v.696c0 .656.12 1.232.36 1.728.256.48.608.856 1.056 1.128.448.256.968.384 1.56.384.592 0 1.08-.128 1.464-.384.4-.256.696-.584.888-.984h3.312a5.458 5.458 0 0 1-1.128 2.04 5.661 5.661 0 0 1-1.944 1.44c-.768.352-1.624.528-2.568.528Zm7.63-.288V16.404h2.88l.312 2.232a4.703 4.703 0 0 1 1.08-1.344 5.234 5.234 0 0 1 1.512-.864 5.545 5.545 0 0 1 1.896-.312v3.432h-1.104c-.48 0-.928.056-1.344.168-.4.112-.752.296-1.056.552-.304.24-.536.576-.696 1.008-.16.432-.24.976-.24 1.632V28.5h-3.24Zm21.076.288c-1.68 0-3.128-.36-4.344-1.08-1.2-.736-2.128-1.752-2.784-3.048-.64-1.312-.96-2.824-.96-4.536 0-1.712.32-3.224.96-4.536.656-1.312 1.584-2.336 2.784-3.072 1.216-.736 2.664-1.104 4.344-1.104 2.032 0 3.696.504 4.992 1.512 1.296 1.008 2.104 2.432 2.424 4.272h-3.528c-.208-.896-.648-1.592-1.32-2.088-.656-.512-1.52-.768-2.592-.768-.992 0-1.848.24-2.568.72-.704.464-1.248 1.128-1.632 1.992-.384.848-.576 1.872-.576 3.072 0 1.184.192 2.208.576 3.072.384.864.928 1.528 1.632 1.992.72.464 1.576.696 2.568.696 1.072 0 1.936-.232 2.592-.696.656-.48 1.088-1.144 1.296-1.992h3.552c-.32 1.744-1.128 3.112-2.424 4.104s-2.96 1.488-4.992 1.488Zm14.823 0c-1.152 0-2.192-.264-3.12-.792a6.09 6.09 0 0 1-2.184-2.232c-.528-.96-.792-2.056-.792-3.288 0-1.264.264-2.368.792-3.312a5.804 5.804 0 0 1 2.208-2.232c.928-.544 1.968-.816 3.12-.816 1.168 0 2.208.272 3.12.816a5.638 5.638 0 0 1 2.184 2.232c.544.944.816 2.04.816 3.288 0 1.248-.272 2.352-.816 3.312a5.853 5.853 0 0 1-2.184 2.232c-.928.528-1.976.792-3.144.792Zm0-2.808c.544 0 1.024-.128 1.44-.384.432-.256.768-.648 1.008-1.176.256-.528.384-1.184.384-1.968s-.128-1.432-.384-1.944c-.24-.528-.576-.92-1.008-1.176a2.53 2.53 0 0 0-1.416-.408c-.512 0-.984.136-1.416.408-.432.256-.776.648-1.032 1.176-.24.512-.36 1.16-.36 1.944s.12 1.44.36 1.968c.256.528.592.92 1.008 1.176.432.256.904.384 1.416.384Zm12.449 2.808c-.976 0-1.816-.2-2.52-.6-.688-.416-1.216-1.016-1.584-1.8-.368-.8-.552-1.784-.552-2.952v-7.032h3.24V23.1c0 .976.2 1.712.6 2.208.416.496 1.048.744 1.896.744.544 0 1.024-.12 1.44-.36.416-.256.744-.616.984-1.08.256-.48.384-1.064.384-1.752v-6.456h3.216V28.5h-2.832l-.264-1.968a4.083 4.083 0 0 1-1.56 1.656c-.688.4-1.504.6-2.448.6Zm9.277-.288V16.404h2.856l.24 1.968a4.358 4.358 0 0 1 1.56-1.632c.688-.416 1.504-.624 2.448-.624 1.008 0 1.856.208 2.544.624.688.416 1.208 1.024 1.56 1.824.368.8.552 1.784.552 2.952V28.5h-3.216v-6.672c0-.96-.208-1.696-.624-2.208-.4-.512-1.024-.768-1.872-.768-.544 0-1.032.128-1.464.384a2.65 2.65 0 0 0-.984 1.104c-.24.464-.36 1.032-.36 1.704V28.5h-3.24Zm19.26 0c-.848 0-1.592-.128-2.232-.384a3.081 3.081 0 0 1-1.464-1.32c-.352-.624-.528-1.472-.528-2.544v-5.136h-2.064v-2.712h2.064l.36-3.288h2.88v3.288h3.192v2.712h-3.192V24.3c0 .544.12.92.36 1.128.24.208.648.312 1.224.312h1.584v2.76h-2.184Zm9.438.288c-1.216 0-2.296-.256-3.24-.768a5.727 5.727 0 0 1-2.184-2.184c-.512-.944-.768-2.032-.768-3.264 0-1.264.256-2.376.768-3.336a5.764 5.764 0 0 1 2.184-2.28c.928-.56 2.008-.84 3.24-.84 1.2 0 2.248.264 3.144.792a5.576 5.576 0 0 1 2.088 2.136c.496.896.744 1.912.744 3.048v.552c0 .192-.016.392-.048.6h-9.816v-1.968h6.6c-.048-.784-.328-1.4-.84-1.848-.496-.448-1.12-.672-1.872-.672-.544 0-1.048.128-1.512.384-.464.24-.832.616-1.104 1.128-.256.512-.384 1.16-.384 1.944v.696c0 .656.12 1.232.36 1.728.256.48.608.856 1.056 1.128.448.256.968.384 1.56.384.592 0 1.08-.128 1.464-.384.4-.256.696-.584.888-.984h3.312a5.458 5.458 0 0 1-1.128 2.04 5.661 5.661 0 0 1-1.944 1.44c-.768.352-1.624.528-2.568.528Zm7.63-.288V16.404h2.88l.312 2.232a4.703 4.703 0 0 1 1.08-1.344 5.234 5.234 0 0 1 1.512-.864 5.545 5.545 0 0 1 1.896-.312v3.432h-1.104c-.48 0-.928.056-1.344.168-.4.112-.752.296-1.056.552-.304.24-.536.576-.696 1.008-.16.432-.24.976-.24 1.632V28.5h-3.24Z"/></svg>