<svg width="56" height="56" viewBox="0 0 56 56" fill="none" xmlns="http://www.w3.org/2000/svg">
<path fill-rule="evenodd" clip-rule="evenodd" d="M55.125 28C55.125 42.9808 42.9808 55.125 28 55.125C13.0192 55.125 0.875 42.9808 0.875 28C0.875 13.0192 13.0192 0.875 28 0.875C42.9808 0.875 55.125 13.0192 55.125 28ZM22.7389 35.609L19.4693 25.6217L28.0001 19.4391L36.5309 25.6217L33.291 35.609H22.7389ZM5.25 27.9998L5.25022 27.979L8.20378 30.556L15.3375 23.8978L13.4947 14.297L9.57797 14.6451C12.3355 10.8582 16.2824 7.85851 21.0162 6.33798L19.4692 9.95731L28 14.6834L36.531 9.95731L34.9841 6.33798C39.7166 7.85807 43.6642 10.8575 46.4222 14.6451L42.5353 14.297L40.6626 23.8978L47.7963 30.556L50.7498 27.979L50.75 27.9998C50.75 32.8889 49.2171 37.5419 46.3806 41.412L45.5075 37.571L35.8176 38.76L31.6859 47.6177L35.0742 49.6332C30.5071 51.1214 25.5014 51.1241 20.9261 49.6332L24.3143 47.6177L20.1826 38.76L10.4926 37.571L9.61953 41.412C6.78289 37.5419 5.25 32.8889 5.25 27.9998Z" fill="currentColor"/>
<mask id="mask0_0_3405" style="mask-type:luminance" maskUnits="userSpaceOnUse" x="0" y="0" width="56" height="56">
<path fill-rule="evenodd" clip-rule="evenodd" d="M55.125 28C55.125 42.9808 42.9808 55.125 28 55.125C13.0192 55.125 0.875 42.9808 0.875 28C0.875 13.0192 13.0192 0.875 28 0.875C42.9808 0.875 55.125 13.0192 55.125 28ZM22.7389 35.609L19.4693 25.6217L28.0001 19.4391L36.5309 25.6217L33.291 35.609H22.7389ZM5.25 27.9998L5.25022 27.979L8.20378 30.556L15.3375 23.8978L13.4947 14.297L9.57797 14.6451C12.3355 10.8582 16.2824 7.85851 21.0162 6.33798L19.4692 9.95731L28 14.6834L36.531 9.95731L34.9841 6.33798C39.7166 7.85807 43.6642 10.8575 46.4222 14.6451L42.5353 14.297L40.6626 23.8978L47.7963 30.556L50.7498 27.979L50.75 27.9998C50.75 32.8889 49.2171 37.5419 46.3806 41.412L45.5075 37.571L35.8176 38.76L31.6859 47.6177L35.0742 49.6332C30.5071 51.1214 25.5014 51.1241 20.9261 49.6332L24.3143 47.6177L20.1826 38.76L10.4926 37.571L9.61953 41.412C6.78289 37.5419 5.25 32.8889 5.25 27.9998Z" fill="white"/>
</mask>
<g mask="url(#mask0_0_3405)">
<rect width="56" height="56" fill="currentColor"/>
</g>
</svg>
