<svg width="56" height="56" viewBox="0 0 56 56" fill="none" xmlns="http://www.w3.org/2000/svg">
<path fill-rule="evenodd" clip-rule="evenodd" d="M48.6911 18.375H54.6865C55.5824 18.375 56.2149 19.2526 55.9316 20.1026L55.0566 22.7276C54.878 23.2635 54.3764 23.625 53.8115 23.625H50.6599L50.6656 23.6403C52.8038 24.8383 54.25 27.1247 54.25 29.75V35C54.25 36.7745 53.5884 38.3937 52.5 39.6275V46.375C52.5 47.8248 51.3248 49 49.875 49H44.625C43.1752 49 42 47.8248 42 46.375V42H14V46.375C14 47.8248 12.8248 49 11.375 49H6.125C4.67523 49 3.5 47.8248 3.5 46.375V39.6275C2.41161 38.3938 1.75 36.7746 1.75 35V29.75C1.75 27.1247 3.19616 24.8383 5.33444 23.6403L5.34012 23.625H2.18848C1.62356 23.625 1.12202 23.2635 0.943359 22.7276L0.0683585 20.1026C-0.214923 19.2526 0.417593 18.375 1.31348 18.375H7.30887L8.16791 16.0842C9.17328 13.4031 10.9487 11.124 13.3022 9.49298C15.6556 7.86209 18.4131 7 21.2765 7H34.7235C37.5868 7 40.3444 7.86198 42.6978 9.49298C45.0512 11.124 46.8267 13.4031 47.8321 16.0842L48.6911 18.375ZM21.2767 14C18.3752 14 15.7412 15.8254 14.7224 18.5421L13.1444 22.75H42.8559L41.278 18.5421C40.2592 15.8254 37.6252 14 34.7237 14H21.2767ZM9.62499 35.875C7.69201 35.875 6.12499 34.308 6.12499 32.375C6.12499 30.442 7.69201 28.875 9.62499 28.875C11.558 28.875 14.875 32.192 14.875 34.125C14.875 35.91 12.0463 35.8906 10.091 35.8772L10.0905 35.8772C9.92864 35.8761 9.77277 35.875 9.62499 35.875ZM45.909 35.8772C46.071 35.8761 46.2271 35.875 46.375 35.875C48.308 35.875 49.875 34.308 49.875 32.375C49.875 30.442 48.308 28.875 46.375 28.875C44.442 28.875 41.125 32.192 41.125 34.125C41.125 35.91 43.9537 35.8906 45.909 35.8772Z" fill="currentColor"/>
<mask id="mask0_0_3406" style="mask-type:luminance" maskUnits="userSpaceOnUse" x="0" y="7" width="56" height="42">
<path fill-rule="evenodd" clip-rule="evenodd" d="M48.6911 18.375H54.6865C55.5824 18.375 56.2149 19.2526 55.9316 20.1026L55.0566 22.7276C54.878 23.2635 54.3764 23.625 53.8115 23.625H50.6599L50.6656 23.6403C52.8038 24.8383 54.25 27.1247 54.25 29.75V35C54.25 36.7745 53.5884 38.3937 52.5 39.6275V46.375C52.5 47.8248 51.3248 49 49.875 49H44.625C43.1752 49 42 47.8248 42 46.375V42H14V46.375C14 47.8248 12.8248 49 11.375 49H6.125C4.67523 49 3.5 47.8248 3.5 46.375V39.6275C2.41161 38.3938 1.75 36.7746 1.75 35V29.75C1.75 27.1247 3.19616 24.8383 5.33444 23.6403L5.34012 23.625H2.18848C1.62356 23.625 1.12202 23.2635 0.943359 22.7276L0.0683585 20.1026C-0.214923 19.2526 0.417593 18.375 1.31348 18.375H7.30887L8.16791 16.0842C9.17328 13.4031 10.9487 11.124 13.3022 9.49298C15.6556 7.86209 18.4131 7 21.2765 7H34.7235C37.5868 7 40.3444 7.86198 42.6978 9.49298C45.0512 11.124 46.8267 13.4031 47.8321 16.0842L48.6911 18.375ZM21.2767 14C18.3752 14 15.7412 15.8254 14.7224 18.5421L13.1444 22.75H42.8559L41.278 18.5421C40.2592 15.8254 37.6252 14 34.7237 14H21.2767ZM9.62499 35.875C7.69201 35.875 6.12499 34.308 6.12499 32.375C6.12499 30.442 7.69201 28.875 9.62499 28.875C11.558 28.875 14.875 32.192 14.875 34.125C14.875 35.91 12.0463 35.8906 10.091 35.8772L10.0905 35.8772C9.92864 35.8761 9.77277 35.875 9.62499 35.875ZM45.909 35.8772C46.071 35.8761 46.2271 35.875 46.375 35.875C48.308 35.875 49.875 34.308 49.875 32.375C49.875 30.442 48.308 28.875 46.375 28.875C44.442 28.875 41.125 32.192 41.125 34.125C41.125 35.91 43.9537 35.8906 45.909 35.8772Z" fill="white"/>
</mask>
<g mask="url(#mask0_0_3406)">
<rect width="56" height="56" fill="currentColor"/>
</g>
</svg>
