<svg xmlns="http://www.w3.org/2000/svg" width="56" height="56" viewBox="0 0 24 24"><path fill="currentColor" fill-rule="evenodd" d="m5.255 9.54l.767-.767c2.17-2.17 3.254-3.255 4.603-3.255q.301 0 .59.073c1.106.275 2.167 1.336 4.012 3.18v.002h.001c1.58 1.58 2.585 2.585 3.014 3.535c.16.355.24.701.24 1.067c0 1.348-1.085 2.433-3.255 4.603l-.767.767C12.29 20.915 11.206 22 9.857 22s-2.433-1.085-4.602-3.255S2 15.491 2 14.142S3.085 11.71 5.255 9.54m-.53 4.072a.75.75 0 0 1 1.06 0l4.603 4.603a.75.75 0 0 1-1.06 1.06l-4.603-4.602a.75.75 0 0 1 0-1.06M19.83 4.17C21.277 5.616 22 6.34 22 7.238c0 .9-.723 1.622-2.17 3.069l-.635.636a8 8 0 0 0-.334-.47c-.604-.792-1.478-1.666-2.502-2.69l-.142-.142c-1.024-1.024-1.898-1.898-2.69-2.502a8 8 0 0 0-.47-.333l.636-.636C15.14 2.723 15.863 2 16.762 2c.898 0 1.622.723 3.068 2.17m-.209 2.33a.75.75 0 0 1 0 1.06l-.707.708a.75.75 0 1 1-1.06-1.06l.707-.708a.75.75 0 0 1 1.06 0M17.5 4.379a.75.75 0 0 1 0 1.06l-.707.707a.75.75 0 1 1-1.06-1.06l.706-.707a.75.75 0 0 1 1.06 0" clip-rule="evenodd"/></svg>