<svg width="56" height="56" viewBox="0 0 56 56" fill="none" xmlns="http://www.w3.org/2000/svg">
<path fill-rule="evenodd" clip-rule="evenodd" d="M15.8592 12.25C15.8592 5.4845 21.3437 0 28.1092 0C34.8747 0 40.3592 5.4845 40.3592 12.25H15.8592ZM52.4272 34.9993C54.3343 34.9993 55.9463 33.5042 55.9986 31.5978C56.0529 29.6198 54.4656 27.9993 52.4999 27.9993H46.3749V21.5741L51.4748 16.4743C52.8415 15.1074 52.8415 12.8914 51.4748 11.5245C50.1078 10.1576 47.8919 10.1576 46.5249 11.5245L40.5501 17.4993H15.4497L9.47487 11.5244C8.1079 10.1575 5.89196 10.1575 4.525 11.5244C3.15825 12.8913 3.15825 15.1073 4.525 16.4742L9.62493 21.5741V27.9993H3.49993C1.53425 27.9993 -0.0530036 29.6198 0.00135581 31.5978C0.0536371 33.5042 1.66572 34.9993 3.57278 34.9993H9.62493V36.7494C9.62493 39.1407 10.1589 41.407 11.1124 43.4371L4.525 50.0245C3.15825 51.3914 3.15825 53.6074 4.525 54.9743C5.89186 56.341 8.1079 56.3412 9.47487 54.9743L15.4616 48.9875C18.1687 51.183 21.6178 52.4994 25.3749 52.4994V25.8118C25.3749 25.087 25.9626 24.4993 26.6874 24.4993H29.3124C30.0373 24.4993 30.6249 25.087 30.6249 25.8118V52.4994C34.3821 52.4994 37.8312 51.183 40.5382 48.9875L46.525 54.9743C47.8919 56.341 50.1079 56.3412 51.4749 54.9743C52.8416 53.6074 52.8416 51.3914 51.4749 50.0245L44.8874 43.4371C45.841 41.407 46.3749 39.1407 46.3749 36.7494V34.9993H52.4272Z" fill="currentColor"/>
<mask id="mask0_0_3409" style="mask-type:luminance" maskUnits="userSpaceOnUse" x="0" y="0" width="56" height="56">
<path fill-rule="evenodd" clip-rule="evenodd" d="M15.8592 12.25C15.8592 5.4845 21.3437 0 28.1092 0C34.8747 0 40.3592 5.4845 40.3592 12.25H15.8592ZM52.4272 34.9993C54.3343 34.9993 55.9463 33.5042 55.9986 31.5978C56.0529 29.6198 54.4656 27.9993 52.4999 27.9993H46.3749V21.5741L51.4748 16.4743C52.8415 15.1074 52.8415 12.8914 51.4748 11.5245C50.1078 10.1576 47.8919 10.1576 46.5249 11.5245L40.5501 17.4993H15.4497L9.47487 11.5244C8.1079 10.1575 5.89196 10.1575 4.525 11.5244C3.15825 12.8913 3.15825 15.1073 4.525 16.4742L9.62493 21.5741V27.9993H3.49993C1.53425 27.9993 -0.0530036 29.6198 0.00135581 31.5978C0.0536371 33.5042 1.66572 34.9993 3.57278 34.9993H9.62493V36.7494C9.62493 39.1407 10.1589 41.407 11.1124 43.4371L4.525 50.0245C3.15825 51.3914 3.15825 53.6074 4.525 54.9743C5.89186 56.341 8.1079 56.3412 9.47487 54.9743L15.4616 48.9875C18.1687 51.183 21.6178 52.4994 25.3749 52.4994V25.8118C25.3749 25.087 25.9626 24.4993 26.6874 24.4993H29.3124C30.0373 24.4993 30.6249 25.087 30.6249 25.8118V52.4994C34.3821 52.4994 37.8312 51.183 40.5382 48.9875L46.525 54.9743C47.8919 56.341 50.1079 56.3412 51.4749 54.9743C52.8416 53.6074 52.8416 51.3914 51.4749 50.0245L44.8874 43.4371C45.841 41.407 46.3749 39.1407 46.3749 36.7494V34.9993H52.4272Z" fill="white"/>
</mask>
<g mask="url(#mask0_0_3409)">
<rect width="56" height="56" fill="currentColor"/>
</g>
</svg>
