<svg width="56" height="56" viewBox="0 0 56 56" fill="none" xmlns="http://www.w3.org/2000/svg">
<path fill-rule="evenodd" clip-rule="evenodd" d="M4.3327 37.4267H1.17289C0.130061 37.4267 -0.392184 36.1648 0.345143 35.4269L6.88335 28.8831C7.34053 28.4256 8.08166 28.4256 8.53875 28.8831L15.0769 35.4269C15.8144 36.1648 15.2921 37.4267 14.2493 37.4267H10.8211C12.8009 42.7313 19.1299 45.8827 24.8786 46.605V28.0547H19.8064C19.16 28.0547 18.6359 27.5301 18.6359 26.8832V22.9781C18.6359 22.3312 19.16 21.8066 19.8064 21.8066H24.8786V21.2726C21.2419 19.9859 18.6359 16.5151 18.6359 12.4345C18.6359 7.214 22.9008 2.99031 28.1336 3.06344C33.2288 3.13451 37.3646 7.33574 37.364 12.4357C37.3635 16.5158 34.7578 19.9861 31.1213 21.2726V21.8066H36.1935C36.8399 21.8066 37.364 22.3312 37.364 22.9781V26.8832C37.364 27.5301 36.8399 28.0547 36.1935 28.0547H31.1213V46.605C36.8913 45.88 43.1997 42.7295 45.1789 37.4267H41.7506C40.7078 37.4267 40.1856 36.1649 40.923 35.4269L47.4612 28.8831C47.9184 28.4256 48.6595 28.4256 49.1166 28.8831L55.6548 35.4269C56.3922 36.1648 55.87 37.4267 54.8271 37.4267H51.6673C49.5427 47.4451 38.3619 53.0469 28 53.0469C17.655 53.0469 6.45981 47.4563 4.3327 37.4267ZM31.1213 12.4342C31.1213 10.7116 29.7211 9.31022 28 9.31022C26.2788 9.31022 24.8786 10.7116 24.8786 12.4342C24.8786 14.1569 26.2788 15.5583 28 15.5583C29.7211 15.5583 31.1213 14.1569 31.1213 12.4342Z" fill="currentColor"/>
<mask id="mask0_0_3400" style="mask-type:luminance" maskUnits="userSpaceOnUse" x="0" y="3" width="56" height="51">
<path fill-rule="evenodd" clip-rule="evenodd" d="M4.3327 37.4267H1.17289C0.130061 37.4267 -0.392184 36.1648 0.345143 35.4269L6.88335 28.8831C7.34053 28.4256 8.08166 28.4256 8.53875 28.8831L15.0769 35.4269C15.8144 36.1648 15.2921 37.4267 14.2493 37.4267H10.8211C12.8009 42.7313 19.1299 45.8827 24.8786 46.605V28.0547H19.8064C19.16 28.0547 18.6359 27.5301 18.6359 26.8832V22.9781C18.6359 22.3312 19.16 21.8066 19.8064 21.8066H24.8786V21.2726C21.2419 19.9859 18.6359 16.5151 18.6359 12.4345C18.6359 7.214 22.9008 2.99031 28.1336 3.06344C33.2288 3.13451 37.3646 7.33574 37.364 12.4357C37.3635 16.5158 34.7578 19.9861 31.1213 21.2726V21.8066H36.1935C36.8399 21.8066 37.364 22.3312 37.364 22.9781V26.8832C37.364 27.5301 36.8399 28.0547 36.1935 28.0547H31.1213V46.605C36.8913 45.88 43.1997 42.7295 45.1789 37.4267H41.7506C40.7078 37.4267 40.1856 36.1649 40.923 35.4269L47.4612 28.8831C47.9184 28.4256 48.6595 28.4256 49.1166 28.8831L55.6548 35.4269C56.3922 36.1648 55.87 37.4267 54.8271 37.4267H51.6673C49.5427 47.4451 38.3619 53.0469 28 53.0469C17.655 53.0469 6.45981 47.4563 4.3327 37.4267ZM31.1213 12.4342C31.1213 10.7116 29.7211 9.31022 28 9.31022C26.2788 9.31022 24.8786 10.7116 24.8786 12.4342C24.8786 14.1569 26.2788 15.5583 28 15.5583C29.7211 15.5583 31.1213 14.1569 31.1213 12.4342Z" fill="white"/>
</mask>
<g mask="url(#mask0_0_3400)">
<rect width="56" height="56" fill="currentColor"/>
</g>
</svg>
