<svg width="56" height="56" viewBox="0 0 56 56" fill="none" xmlns="http://www.w3.org/2000/svg">
<path d="M52.1518 32.9918C52.4735 32.4295 52.5771 31.7685 52.4428 31.1348C52.1448 29.7166 50.7651 28.8111 49.3613 29.1122L39.8011 31.8516L32.375 28L39.8011 24.1484L49.3613 26.8878C50.7651 27.1889 52.1448 26.2834 52.4428 24.8652C52.7409 23.447 51.8444 22.0534 50.4407 21.7523L45.2479 20.9717L51.0532 17.5859C52.296 16.861 52.7219 15.2555 52.0043 14C51.2867 12.7445 49.6975 12.3143 48.4547 13.0391L42.6494 16.425L44.5767 11.4917C45.0204 10.1129 44.2739 8.63198 42.909 8.18366C41.5443 7.73533 40.0781 8.48958 39.6344 9.86825L37.2027 19.6015L30.5987 23.4532V15.75L37.7272 8.75602C38.6873 7.67845 38.6008 6.01869 37.534 5.04886C36.4673 4.07903 34.8243 4.16642 33.8643 5.24398L30.5987 9.39663V2.625C30.5987 1.17523 29.4352 0 28.0001 0C26.565 0 25.4016 1.17523 25.4016 2.625V9.39663L22.136 5.24398C21.1758 4.16642 19.533 4.07892 18.4662 5.04886C17.3995 6.01869 17.3131 7.67845 18.2731 8.75602L25.4015 15.75V23.4534L18.7974 19.6017L16.3658 9.86847C15.9221 8.4898 14.4559 7.73555 13.0911 8.18388C11.7263 8.6322 10.9797 10.1132 11.4235 11.4919L13.3507 16.4252L7.54537 13.0394C6.30254 12.3145 4.71332 12.7447 3.99571 14.0002C3.2781 15.2557 3.70401 16.8611 4.94683 17.5861L10.7521 20.9719L5.55933 21.7525C4.15551 22.0537 3.25907 23.4473 3.55723 24.8654C3.85527 26.2835 5.23493 27.1891 6.63876 26.888L16.1989 24.1486L23.625 28L16.1989 31.8516L6.63887 29.1123C5.23504 28.8112 3.85538 29.7167 3.55733 31.1349C3.25929 32.5532 4.15562 33.9467 5.55944 34.2478L10.7522 35.0284L4.94694 38.4142C3.70412 39.1391 3.27832 40.7445 3.99582 42C4.71332 43.2555 6.30265 43.6857 7.54548 42.9609L13.3508 39.575L11.4236 44.5083C11.1949 45.2162 11.2752 45.9876 11.6447 46.6332C11.9544 47.175 12.4559 47.6077 13.0911 47.8162C14.4559 48.2646 15.9221 47.5103 16.3658 46.1316L18.7974 36.3984L25.4015 32.5467V40.25L18.273 47.244C17.3129 48.3215 17.3994 49.9813 18.4661 50.9511C19.533 51.9211 21.1758 51.8336 22.1359 50.756L25.4015 46.6034V53.375C25.4015 54.8248 26.5649 56 28 56C29.4351 56 30.5986 54.8248 30.5986 53.375V46.6034L33.8642 50.756C34.3542 51.309 35.0577 51.6254 35.7965 51.625C36.4395 51.6253 37.0593 51.3849 37.5339 50.9511C38.6006 49.9813 38.6872 48.3215 37.7271 47.244L30.5986 40.25V32.5466L37.2026 36.3983L39.6342 46.1315C40.078 47.5102 41.5441 48.2645 42.9089 47.8161C44.2738 47.3678 45.0203 45.8867 44.5766 44.5081L42.6493 39.5748L48.4546 42.9606C49.6974 43.6855 51.2866 43.2553 52.0042 41.9998C52.7218 40.7443 52.2959 39.1389 51.0531 38.4139L45.2478 35.0281L50.4406 34.2475C51.1909 34.0868 51.7962 33.6139 52.1518 32.9918Z" fill="currentColor"/>
<mask id="mask0_0_3408" style="mask-type:luminance" maskUnits="userSpaceOnUse" x="3" y="0" width="50" height="56">
<path d="M52.1518 32.9918C52.4735 32.4295 52.5771 31.7685 52.4428 31.1348C52.1448 29.7166 50.7651 28.8111 49.3613 29.1122L39.8011 31.8516L32.375 28L39.8011 24.1484L49.3613 26.8878C50.7651 27.1889 52.1448 26.2834 52.4428 24.8652C52.7409 23.447 51.8444 22.0534 50.4407 21.7523L45.2479 20.9717L51.0532 17.5859C52.296 16.861 52.7219 15.2555 52.0043 14C51.2867 12.7445 49.6975 12.3143 48.4547 13.0391L42.6494 16.425L44.5767 11.4917C45.0204 10.1129 44.2739 8.63198 42.909 8.18366C41.5443 7.73533 40.0781 8.48958 39.6344 9.86825L37.2027 19.6015L30.5987 23.4532V15.75L37.7272 8.75602C38.6873 7.67845 38.6008 6.01869 37.534 5.04886C36.4673 4.07903 34.8243 4.16642 33.8643 5.24398L30.5987 9.39663V2.625C30.5987 1.17523 29.4352 0 28.0001 0C26.565 0 25.4016 1.17523 25.4016 2.625V9.39663L22.136 5.24398C21.1758 4.16642 19.533 4.07892 18.4662 5.04886C17.3995 6.01869 17.3131 7.67845 18.2731 8.75602L25.4015 15.75V23.4534L18.7974 19.6017L16.3658 9.86847C15.9221 8.4898 14.4559 7.73555 13.0911 8.18388C11.7263 8.6322 10.9797 10.1132 11.4235 11.4919L13.3507 16.4252L7.54537 13.0394C6.30254 12.3145 4.71332 12.7447 3.99571 14.0002C3.2781 15.2557 3.70401 16.8611 4.94683 17.5861L10.7521 20.9719L5.55933 21.7525C4.15551 22.0537 3.25907 23.4473 3.55723 24.8654C3.85527 26.2835 5.23493 27.1891 6.63876 26.888L16.1989 24.1486L23.625 28L16.1989 31.8516L6.63887 29.1123C5.23504 28.8112 3.85538 29.7167 3.55733 31.1349C3.25929 32.5532 4.15562 33.9467 5.55944 34.2478L10.7522 35.0284L4.94694 38.4142C3.70412 39.1391 3.27832 40.7445 3.99582 42C4.71332 43.2555 6.30265 43.6857 7.54548 42.9609L13.3508 39.575L11.4236 44.5083C11.1949 45.2162 11.2752 45.9876 11.6447 46.6332C11.9544 47.175 12.4559 47.6077 13.0911 47.8162C14.4559 48.2646 15.9221 47.5103 16.3658 46.1316L18.7974 36.3984L25.4015 32.5467V40.25L18.273 47.244C17.3129 48.3215 17.3994 49.9813 18.4661 50.9511C19.533 51.9211 21.1758 51.8336 22.1359 50.756L25.4015 46.6034V53.375C25.4015 54.8248 26.5649 56 28 56C29.4351 56 30.5986 54.8248 30.5986 53.375V46.6034L33.8642 50.756C34.3542 51.309 35.0577 51.6254 35.7965 51.625C36.4395 51.6253 37.0593 51.3849 37.5339 50.9511C38.6006 49.9813 38.6872 48.3215 37.7271 47.244L30.5986 40.25V32.5466L37.2026 36.3983L39.6342 46.1315C40.078 47.5102 41.5441 48.2645 42.9089 47.8161C44.2738 47.3678 45.0203 45.8867 44.5766 44.5081L42.6493 39.5748L48.4546 42.9606C49.6974 43.6855 51.2866 43.2553 52.0042 41.9998C52.7218 40.7443 52.2959 39.1389 51.0531 38.4139L45.2478 35.0281L50.4406 34.2475C51.1909 34.0868 51.7962 33.6139 52.1518 32.9918Z" fill="white"/>
</mask>
<g mask="url(#mask0_0_3408)">
<rect width="56" height="56" fill="currentColor"/>
</g>
</svg>
