<svg width="56" height="56" viewBox="0 0 56 56" fill="none" xmlns="http://www.w3.org/2000/svg">
<path fill-rule="evenodd" clip-rule="evenodd" d="M30.1144 1.38313L32.9052 8.20736C33.366 9.33403 34.7286 9.77678 35.7636 9.13618L42.0326 5.25566C43.7268 4.20697 45.8397 5.74205 45.3658 7.67744L43.6125 14.8388C43.323 16.0211 44.1652 17.1803 45.3791 17.2703L52.7317 17.8157C54.7188 17.9632 55.5258 20.447 54.005 21.7342L48.3773 26.4972C47.4482 27.2836 47.4482 28.7163 48.3773 29.5027L54.0051 34.2657C55.526 35.553 54.719 38.0368 52.7318 38.1842L45.3792 38.7297C44.1653 38.8197 43.3231 39.9788 43.6126 41.1612L45.3659 48.3225C45.8397 50.2579 43.7268 51.793 42.0327 50.7443L35.7637 46.8638C34.7287 46.223 33.366 46.6658 32.9053 47.7926L30.1145 54.6168C29.3603 56.4611 26.7486 56.4611 25.9944 54.6168L23.2035 47.7926C22.7428 46.6659 21.3802 46.2232 20.3451 46.8638L14.0761 50.7443C12.3819 51.793 10.269 50.2579 10.7429 48.3225L12.4962 41.1612C12.7857 39.9788 11.9435 38.8197 10.7295 38.7297L3.37692 38.1842C1.38991 38.0368 0.582829 35.553 2.10369 34.2657L7.73136 29.5028C8.6605 28.7164 8.6605 27.2837 7.73136 26.4973L2.10358 21.7342C0.58261 20.447 1.38969 17.9632 3.37681 17.8157L10.7294 17.2703C11.9434 17.1803 12.7856 16.0211 12.4961 14.8388L10.7428 7.67744C10.269 5.74205 12.3819 4.20697 14.076 5.25566L20.345 9.13618C21.38 9.77689 22.7426 9.33414 23.2034 8.20736L25.9943 1.38313C26.7485 -0.461043 29.3602 -0.461043 30.1144 1.38313ZM42.9295 27.9997C42.9295 19.7976 36.2565 13.1247 28.0545 13.1247C19.8523 13.1247 13.1795 19.7976 13.1795 27.9997C13.1795 36.2019 19.8523 42.8747 28.0545 42.8747C36.2565 42.8747 42.9295 36.2019 42.9295 27.9997ZM28.0545 39.3748C34.3267 39.3748 39.4295 34.272 39.4295 27.9998C39.4295 21.7275 34.3267 16.6248 28.0545 16.6248C21.7822 16.6248 16.6795 21.7275 16.6795 27.9998C16.6795 34.272 21.7822 39.3748 28.0545 39.3748Z" fill="currentColor"/>
<mask id="mask0_0_3402" style="mask-type:luminance" maskUnits="userSpaceOnUse" x="1" y="0" width="54" height="56">
<path fill-rule="evenodd" clip-rule="evenodd" d="M30.1144 1.38313L32.9052 8.20736C33.366 9.33403 34.7286 9.77678 35.7636 9.13618L42.0326 5.25566C43.7268 4.20697 45.8397 5.74205 45.3658 7.67744L43.6125 14.8388C43.323 16.0211 44.1652 17.1803 45.3791 17.2703L52.7317 17.8157C54.7188 17.9632 55.5258 20.447 54.005 21.7342L48.3773 26.4972C47.4482 27.2836 47.4482 28.7163 48.3773 29.5027L54.0051 34.2657C55.526 35.553 54.719 38.0368 52.7318 38.1842L45.3792 38.7297C44.1653 38.8197 43.3231 39.9788 43.6126 41.1612L45.3659 48.3225C45.8397 50.2579 43.7268 51.793 42.0327 50.7443L35.7637 46.8638C34.7287 46.223 33.366 46.6658 32.9053 47.7926L30.1145 54.6168C29.3603 56.4611 26.7486 56.4611 25.9944 54.6168L23.2035 47.7926C22.7428 46.6659 21.3802 46.2232 20.3451 46.8638L14.0761 50.7443C12.3819 51.793 10.269 50.2579 10.7429 48.3225L12.4962 41.1612C12.7857 39.9788 11.9435 38.8197 10.7295 38.7297L3.37692 38.1842C1.38991 38.0368 0.582829 35.553 2.10369 34.2657L7.73136 29.5028C8.6605 28.7164 8.6605 27.2837 7.73136 26.4973L2.10358 21.7342C0.58261 20.447 1.38969 17.9632 3.37681 17.8157L10.7294 17.2703C11.9434 17.1803 12.7856 16.0211 12.4961 14.8388L10.7428 7.67744C10.269 5.74205 12.3819 4.20697 14.076 5.25566L20.345 9.13618C21.38 9.77689 22.7426 9.33414 23.2034 8.20736L25.9943 1.38313C26.7485 -0.461043 29.3602 -0.461043 30.1144 1.38313ZM42.9295 27.9997C42.9295 19.7976 36.2565 13.1247 28.0545 13.1247C19.8523 13.1247 13.1795 19.7976 13.1795 27.9997C13.1795 36.2019 19.8523 42.8747 28.0545 42.8747C36.2565 42.8747 42.9295 36.2019 42.9295 27.9997ZM28.0545 39.3748C34.3267 39.3748 39.4295 34.272 39.4295 27.9998C39.4295 21.7275 34.3267 16.6248 28.0545 16.6248C21.7822 16.6248 16.6795 21.7275 16.6795 27.9998C16.6795 34.272 21.7822 39.3748 28.0545 39.3748Z" fill="white"/>
</mask>
<g mask="url(#mask0_0_3402)">
<rect width="56" height="56" fill="currentColor"/>
</g>
</svg>
