<svg width="56" height="56" viewBox="0 0 56 56" fill="none" xmlns="http://www.w3.org/2000/svg">
<path d="M47.6868 28H42.4348C41.7419 28 41.125 28.5373 41.125 29.23C41.125 40.25 32.1758 45.5 22.75 45.5V28.0854L37.4722 24.8138C38.0727 24.6804 38.5 24.1477 38.5 23.5326V19.0508C38.5 18.2112 37.7225 17.5874 36.9028 17.7696L22.75 20.9146V17.5853L37.4722 14.3137C38.0727 14.1802 38.5 13.6476 38.5 13.0325V8.55083C38.5 7.71116 37.7225 7.08739 36.9028 7.26961L22.75 10.4146V4.8125C22.75 4.08767 22.1623 3.5 21.4375 3.5H15.3125C14.5877 3.5 14 4.08767 14 4.8125V12.359L8.0278 13.6862C7.42728 13.8196 7.00001 14.3523 7 14.9674V19.4492C7 20.2888 7.77755 20.9126 8.5972 20.7304L14 19.5298V22.859L8.0278 24.1862C7.42728 24.3196 7.00001 24.8523 7 25.4674V29.9492C7 30.7888 7.77755 31.4126 8.5972 31.2304L14 30.0298V51.1875C14 51.9123 14.5877 52.5 15.3125 52.5H24.0169C38.6831 52.5 48.4354 43.9869 48.999 29.3571C49.0276 28.6153 48.4291 28 47.6868 28Z" fill="currentColor"/>
<mask id="mask0_0_3407" style="mask-type:luminance" maskUnits="userSpaceOnUse" x="7" y="3" width="42" height="50">
<path d="M47.6868 28H42.4348C41.7419 28 41.125 28.5373 41.125 29.23C41.125 40.25 32.1758 45.5 22.75 45.5V28.0854L37.4722 24.8138C38.0727 24.6804 38.5 24.1477 38.5 23.5326V19.0508C38.5 18.2112 37.7225 17.5874 36.9028 17.7696L22.75 20.9146V17.5853L37.4722 14.3137C38.0727 14.1802 38.5 13.6476 38.5 13.0325V8.55083C38.5 7.71116 37.7225 7.08739 36.9028 7.26961L22.75 10.4146V4.8125C22.75 4.08767 22.1623 3.5 21.4375 3.5H15.3125C14.5877 3.5 14 4.08767 14 4.8125V12.359L8.0278 13.6862C7.42728 13.8196 7.00001 14.3523 7 14.9674V19.4492C7 20.2888 7.77755 20.9126 8.5972 20.7304L14 19.5298V22.859L8.0278 24.1862C7.42728 24.3196 7.00001 24.8523 7 25.4674V29.9492C7 30.7888 7.77755 31.4126 8.5972 31.2304L14 30.0298V51.1875C14 51.9123 14.5877 52.5 15.3125 52.5H24.0169C38.6831 52.5 48.4354 43.9869 48.999 29.3571C49.0276 28.6153 48.4291 28 47.6868 28Z" fill="white"/>
</mask>
<g mask="url(#mask0_0_3407)">
<rect width="56" height="56" fill="currentColor"/>
</g>
</svg>
